<?xml version="1.0" encoding="UTF-8" standalone="no"?>
<!-- Created with Inkscape (http://www.inkscape.org/) -->

<!--
	Copyright (C) 2023-2025 Pyxherb <codesbuilder@163.com>, all rights reserved.
	Text logo of slake project.
 -->

<svg
   width="117.22076mm"
   height="31.242153mm"
   viewBox="0 0 117.22075 31.242153"
   version="1.1"
   id="SVGRoot"
   sodipodi:docname="logo2.svg"
   inkscape:version="1.4.2 (f4327f4, 2025-05-13)"
   xmlns:inkscape="http://www.inkscape.org/namespaces/inkscape"
   xmlns:sodipodi="http://sodipodi.sourceforge.net/DTD/sodipodi-0.dtd"
   xmlns:xlink="http://www.w3.org/1999/xlink"
   xmlns="http://www.w3.org/2000/svg"
   xmlns:svg="http://www.w3.org/2000/svg"
   xmlns:rdf="http://www.w3.org/1999/02/22-rdf-syntax-ns#"
   xmlns:cc="http://creativecommons.org/ns#"
   xmlns:dc="http://purl.org/dc/elements/1.1/">
  <title
     id="title903">Slake text logo</title>
  <sodipodi:namedview
     id="namedview16510"
     pagecolor="#ffffff"
     bordercolor="#000000"
     borderopacity="0.25"
     inkscape:showpageshadow="2"
     inkscape:pageopacity="0.0"
     inkscape:pagecheckerboard="0"
     inkscape:deskcolor="#d1d1d1"
     inkscape:document-units="mm"
     showgrid="false"
     inkscape:zoom="0.75511775"
     inkscape:cx="140.37546"
     inkscape:cy="97.335813"
     inkscape:window-width="1427"
     inkscape:window-height="747"
     inkscape:window-x="0"
     inkscape:window-y="69"
     inkscape:window-maximized="0"
     inkscape:current-layer="layer1" />
  <defs
     id="defs16505">
    <linearGradient
       inkscape:collect="always"
       id="linearGradient2">
      <stop
         style="stop-color:#1781b5;stop-opacity:1;"
         offset="0"
         id="stop1" />
      <stop
         style="stop-color:#15559a;stop-opacity:1;"
         offset="1"
         id="stop2" />
    </linearGradient>
    <linearGradient
       inkscape:collect="always"
       id="linearGradient22700">
      <stop
         style="stop-color:#1781b5;stop-opacity:1;"
         offset="0"
         id="stop22696" />
      <stop
         style="stop-color:#15559a;stop-opacity:1;"
         offset="1"
         id="stop22698" />
    </linearGradient>
    <inkscape:path-effect
       effect="spiro"
       id="path-effect1361"
       is_visible="true"
       lpeversion="1" />
    <inkscape:path-effect
       effect="spiro"
       id="path-effect1361-5"
       is_visible="true"
       lpeversion="1" />
    <linearGradient
       inkscape:collect="always"
       xlink:href="#linearGradient22700"
       id="linearGradient22702"
       x1="160.57166"
       y1="163.78239"
       x2="239.43475"
       y2="163.78239"
       gradientUnits="userSpaceOnUse"
       gradientTransform="translate(-337.72394,-1.0749321)" />
    <linearGradient
       inkscape:collect="always"
       xlink:href="#linearGradient22700"
       id="linearGradient2562"
       gradientUnits="userSpaceOnUse"
       x1="160.57166"
       y1="163.78239"
       x2="239.43475"
       y2="163.78239"
       gradientTransform="translate(17.100333,-1.0749371)" />
    <linearGradient
       inkscape:collect="always"
       xlink:href="#linearGradient22700"
       id="linearGradient2633"
       gradientUnits="userSpaceOnUse"
       gradientTransform="translate(25.246436,-1.0749261)"
       x1="160.57166"
       y1="163.78239"
       x2="239.43475"
       y2="163.78239" />
    <linearGradient
       inkscape:collect="always"
       xlink:href="#linearGradient22700"
       id="linearGradient2704"
       gradientUnits="userSpaceOnUse"
       gradientTransform="translate(43.981026,-1.0749381)"
       x1="160.57166"
       y1="163.78239"
       x2="239.43475"
       y2="163.78239" />
    <linearGradient
       inkscape:collect="always"
       xlink:href="#linearGradient2"
       id="linearGradient2943"
       gradientUnits="userSpaceOnUse"
       gradientTransform="translate(61.081356,-1.0749331)"
       x1="99.60434"
       y1="151.74536"
       x2="175.97588"
       y2="177.03333" />
    <linearGradient
       inkscape:collect="always"
       xlink:href="#linearGradient114"
       id="linearGradient115"
       x1="63.085152"
       y1="31.105453"
       x2="63.085152"
       y2="55.894943"
       gradientUnits="userSpaceOnUse" />
    <linearGradient
       id="linearGradient114"
       inkscape:collect="always">
      <stop
         style="stop-color:#2177b8;stop-opacity:1;"
         offset="0"
         id="stop114" />
      <stop
         style="stop-color:#1a94bc;stop-opacity:1;"
         offset="1"
         id="stop115" />
    </linearGradient>
    <inkscape:path-effect
       effect="fillet_chamfer"
       id="path-effect5"
       is_visible="true"
       lpeversion="1"
       nodesatellites_param="F,0,0,1,0,0,0,1 @ F,0,0,1,0,0,0,1 @ F,0,0,1,0,0,0,1 @ F,0,0,1,0,0,0,1"
       radius="0"
       unit="px"
       method="auto"
       mode="F"
       chamfer_steps="1"
       flexible="false"
       use_knot_distance="true"
       apply_no_radius="true"
       apply_with_radius="true"
       only_selected="false"
       hide_knots="false" />
    <linearGradient
       inkscape:collect="always"
       xlink:href="#linearGradient2497"
       id="linearGradient2499"
       x1="21.733553"
       y1="32.167767"
       x2="42.092712"
       y2="52.526928"
       gradientUnits="userSpaceOnUse" />
    <linearGradient
       inkscape:collect="always"
       id="linearGradient2497">
      <stop
         style="stop-color:#1a94bc;stop-opacity:1;"
         offset="0"
         id="stop2495" />
      <stop
         style="stop-color:#2177b8;stop-opacity:1;"
         offset="1"
         id="stop2493" />
    </linearGradient>
    <inkscape:path-effect
       effect="fillet_chamfer"
       id="path-effect4-7"
       is_visible="true"
       lpeversion="1"
       nodesatellites_param="F,0,0,1,0,0,0,1 @ F,0,0,1,0,0,0,1 @ F,0,0,1,0,0,0,1 @ F,0,0,1,0,0,0,1"
       radius="0"
       unit="px"
       method="auto"
       mode="F"
       chamfer_steps="1"
       flexible="false"
       use_knot_distance="true"
       apply_no_radius="true"
       apply_with_radius="true"
       only_selected="false"
       hide_knots="false" />
    <linearGradient
       inkscape:collect="always"
       xlink:href="#linearGradient114"
       id="linearGradient2348"
       x1="42.822918"
       y1="71.431053"
       x2="64.414047"
       y2="93.022186"
       gradientUnits="userSpaceOnUse" />
    <inkscape:path-effect
       effect="bspline"
       id="path-effect485"
       is_visible="true"
       lpeversion="1"
       weight="33.333333"
       steps="2"
       helper_size="0"
       apply_no_weight="true"
       apply_with_weight="true"
       only_selected="false"
       uniform="false" />
  </defs>
  <g
     inkscape:label="图层 1"
     inkscape:groupmode="layer"
     id="layer1"
     transform="translate(-123.59845,-147.56942)">
    <g
       aria-label="Z"
       transform="scale(-1,1)"
       id="text131"
       style="font-size:34.0465px;font-family:Ubuntu;-inkscape-font-specification:Ubuntu;fill:url(#linearGradient22702);stroke-width:2.83713" />
    <g
       aria-label="l"
       id="text131-3"
       style="font-size:34.0465px;font-family:Ubuntu;-inkscape-font-specification:Ubuntu;fill:url(#linearGradient2562);stroke-width:2.83713" />
    <g
       aria-label="α"
       id="text131-3-2"
       style="font-size:34.0465px;font-family:Ubuntu;-inkscape-font-specification:Ubuntu;fill:url(#linearGradient2633);stroke-width:2.83713" />
    <g
       aria-label="κ"
       id="text131-3-2-7"
       style="font-size:34.0465px;font-family:Ubuntu;-inkscape-font-specification:Ubuntu;fill:url(#linearGradient2704);stroke-width:2.83713" />
    <path
       id="path2927"
       style="font-size:34.0465px;font-family:Ubuntu;-inkscape-font-specification:Ubuntu;fill:url(#linearGradient2943);fill-opacity:1;stroke-width:2.83713"
       sodipodi:type="inkscape:offset"
       inkscape:radius="-0.10003013"
       inkscape:original="M 181.72266 150.5 L 179.16992 150.94336 L 179.16992 171.30469 C 179.16992 172.43957 179.34118 173.34641 179.68164 174.02734 C 180.02211 174.68557 180.54246 175.17442 181.24609 175.49219 C 181.97242 175.80995 182.88121 175.99171 183.9707 176.03711 L 184.3457 173.92578 C 183.39239 173.78959 182.71129 173.56191 182.30273 173.24414 C 181.91687 172.92637 181.72266 172.2223 181.72266 171.13281 L 181.72266 150.5 z M 160.87891 152.13477 L 160.87891 154.41602 C 161.51444 155.16505 162.27495 156.09679 163.16016 157.20898 C 164.04537 158.32117 164.98567 159.54561 165.98438 160.88477 C 166.96037 162.22393 167.95908 163.62157 168.98047 165.07422 C 169.97916 166.52687 170.93389 167.96653 171.8418 169.39648 C 172.72701 170.82643 173.52098 172.17815 174.22461 173.44922 L 160.53711 173.44922 L 160.53711 175.73047 L 177.18555 175.73047 L 177.18555 173.82422 C 176.59541 172.66664 175.88083 171.39433 175.04102 170.00977 C 174.20121 168.60252 173.29436 167.17335 172.31836 165.7207 C 171.34236 164.24535 170.35417 162.80373 169.35547 161.39648 C 168.33408 159.98922 167.35834 158.68344 166.42773 157.48047 C 165.49712 156.2775 164.65722 155.25584 163.9082 154.41602 L 176.57422 154.41602 L 176.57422 152.13477 L 160.87891 152.13477 z M 229.96094 157.68555 C 228.64447 157.68555 227.38461 158.0261 226.18164 158.70703 C 225.00136 159.38796 224.03613 160.40962 223.28711 161.77148 C 222.53808 163.13334 222.16406 164.84662 222.16406 166.91211 C 222.16406 168.68253 222.45869 170.25998 223.04883 171.64453 C 223.66167 173.02909 224.60393 174.11769 225.875 174.91211 C 227.16877 175.70653 228.84857 176.10352 230.91406 176.10352 C 232.09434 176.10352 233.13897 175.98015 234.04688 175.73047 C 234.97748 175.4808 235.6002 175.26556 235.91797 175.08398 L 235.47656 172.9375 C 235.15879 173.09639 234.62402 173.29061 233.875 173.51758 C 233.14867 173.72186 232.20836 173.82422 231.05078 173.82422 C 228.96259 173.82422 227.41862 173.27894 226.41992 172.18945 C 225.44392 171.07726 224.91111 169.52278 224.82031 167.52539 L 237.10938 167.52539 C 237.13208 167.34381 237.14453 167.14959 237.14453 166.94531 C 237.16723 166.71833 237.17773 166.52607 237.17773 166.36719 C 237.17773 164.39249 236.88311 162.76912 236.29297 161.49805 C 235.70283 160.20428 234.86293 159.25151 233.77344 158.63867 C 232.70665 158.00314 231.43629 157.68555 229.96094 157.68555 z M 195.24805 157.75391 C 193.45494 157.75391 191.88995 158.11742 190.55078 158.84375 C 189.21162 159.57008 188.167 160.62522 187.41797 162.00977 C 186.69165 163.37163 186.32812 165.016 186.32812 166.94531 C 186.32812 168.67033 186.6247 170.22482 187.21484 171.60938 C 187.82767 172.99393 188.73452 174.09499 189.9375 174.91211 C 191.16317 175.70653 192.69469 176.10352 194.5332 176.10352 C 195.75887 176.10352 196.793 175.92372 197.63281 175.56055 C 198.49532 175.17469 199.2099 174.76523 199.77734 174.33398 C 200.1632 174.85603 200.68552 175.26548 201.34375 175.56055 C 202.02468 175.83292 202.82916 175.99171 203.75977 176.03711 L 204.10156 173.92578 C 203.51142 173.83499 203.01208 173.72212 202.60352 173.58594 C 202.19497 173.42705 201.88787 173.16589 201.68359 172.80273 C 201.50202 172.43956 201.41211 171.88183 201.41211 171.13281 L 201.41211 158.80859 C 200.91276 158.60432 200.09582 158.37663 198.96094 158.12695 C 197.82605 157.87728 196.58721 157.75391 195.24805 157.75391 z M 206.08398 158.09375 L 206.08398 175.73047 L 208.63867 175.73047 L 208.63867 167.18359 C 209.50118 167.70564 210.46446 168.43267 211.53125 169.36328 C 212.59804 170.29389 213.63216 171.31555 214.63086 172.42773 C 215.65225 173.53992 216.50266 174.64098 217.18359 175.73047 L 220.17969 175.73047 C 219.56685 174.66368 218.76237 173.53966 217.76367 172.35938 C 216.78768 171.1564 215.73059 170.02187 214.5957 168.95508 C 213.48351 167.86559 212.40542 166.97976 211.36133 166.29883 C 211.90608 165.79948 212.53074 165.21023 213.23438 164.5293 C 213.93801 163.82567 214.66503 163.08813 215.41406 162.31641 C 216.18578 161.54469 216.92332 160.79469 217.62695 160.06836 C 218.33058 159.31934 218.94279 158.66119 219.46484 158.09375 L 216.43555 158.09375 C 216.04969 158.525 215.53787 159.07029 214.90234 159.72852 C 214.2895 160.36405 213.62085 161.06812 212.89453 161.83984 C 212.1682 162.58887 211.43067 163.33692 210.68164 164.08594 C 209.93262 164.81227 209.25151 165.47041 208.63867 166.06055 L 208.63867 158.09375 L 206.08398 158.09375 z M 229.99414 159.89844 C 230.97014 159.89844 231.78708 160.12613 232.44531 160.58008 C 233.12624 161.01134 233.64856 161.64652 234.01172 162.48633 C 234.37491 163.30344 234.56714 164.28969 234.58984 165.44727 L 224.88672 165.44727 C 224.95481 164.47127 225.193 163.56442 225.60156 162.72461 C 226.03281 161.8848 226.62402 161.20369 227.37305 160.68164 C 228.12207 160.15959 228.99544 159.89844 229.99414 159.89844 z M 195.38477 160 C 196.20188 160 196.93943 160.07939 197.59766 160.23828 C 198.27859 160.37447 198.69853 160.47682 198.85742 160.54492 L 198.85742 170.65625 C 198.85742 170.97402 198.86988 171.2811 198.89258 171.57617 C 198.93796 171.84854 198.98194 172.1097 199.02734 172.35938 C 198.70957 172.63175 198.1538 172.94934 197.35938 173.3125 C 196.58766 173.65297 195.66835 173.82422 194.60156 173.82422 C 193.55747 173.82422 192.6736 173.64246 191.94727 173.2793 C 191.24364 172.91613 190.66489 172.42728 190.21094 171.81445 C 189.77968 171.17892 189.46208 170.45189 189.25781 169.63477 C 189.07623 168.79496 188.98438 167.91108 188.98438 166.98047 C 188.98437 165.48242 189.23503 164.21011 189.73438 163.16602 C 190.25643 162.12193 190.99397 161.34041 191.94727 160.81836 C 192.92327 160.27361 194.0683 160 195.38477 160 z "
       d="m 181.62305,150.61719 -2.35352,0.41015 v 20.27735 c 0,1.12481 0.17138,2.01657 0.50195,2.67773 0.33066,0.638 0.83108,1.10882 1.51563,1.41797 0.6914,0.30248 1.56068,0.48017 2.60156,0.53125 l 0.3418,-1.92383 c -0.90646,-0.13884 -1.57181,-0.36162 -1.98828,-0.68554 a 0.10004013,0.10004013 0 0 1 -0.004,0 c -0.42911,-0.3534 -0.61523,-1.08808 -0.61523,-2.18946 z m -20.64453,1.61718 v 2.14649 c 0.63248,0.74617 1.38333,1.66446 2.25976,2.76562 0.88599,1.11318 1.82694,2.33788 2.82617,3.67774 a 0.10004013,0.10004013 0 0 1 0,0.002 c 0.97637,1.33968 1.97638,2.73836 2.99805,4.19141 0.99931,1.45355 1.95465,2.89508 2.86328,4.32617 a 0.10004013,0.10004013 0 0 1 0.002,0 c 0.88597,1.43118 1.68025,2.78397 2.38477,4.05664 a 0.10004013,0.10004013 0 0 1 -0.0879,0.14844 h -13.58789 v 2.08203 h 16.44922 v -1.7793 c -0.58711,-1.15038 -1.29618,-2.41296 -2.13086,-3.78906 a 0.10004013,0.10004013 0 0 1 0,-0.002 c -0.83885,-1.40563 -1.74565,-2.83196 -2.72071,-4.28321 a 0.10004013,0.10004013 0 0 1 0,-0.002 c -0.9754,-1.47444 -1.96287,-2.91396 -2.96093,-4.32031 h 0.002 c -1.02088,-1.40656 -1.99785,-2.71204 -2.92773,-3.91406 -0.92956,-1.20162 -1.76675,-2.22113 -2.51368,-3.0586 a 0.10004013,0.10004013 0 0 1 0.0742,-0.16601 h 12.56641 v -2.08204 z m 68.98242,5.55079 c -1.29922,0 -2.54111,0.33654 -3.73047,1.00976 -1.16215,0.67109 -2.11426,1.67773 -2.85547,3.02539 -0.73873,1.34314 -1.11133,3.03839 -1.11133,5.0918 0,1.75932 0.29285,3.32297 0.87695,4.69336 0.60535,1.36683 1.53252,2.43853 2.78711,3.22265 v -0.002 c 1.27354,0.78199 2.93366,1.17774 4.98633,1.17774 1.17331,0 2.20835,-0.12243 3.10547,-0.36914 a 0.10004013,0.10004013 0 0 1 0.002,0 c 0.88406,-0.23719 1.46993,-0.44267 1.78321,-0.60938 l -0.40039,-1.94922 c -0.33333,0.15449 -0.81623,0.32991 -1.5,0.53711 a 0.10004013,0.10004013 0 0 1 -0.002,0 c -0.7396,0.20802 -1.68808,0.31055 -2.85156,0.31055 -2.1056,0 -3.68291,-0.55093 -4.70508,-1.66602 a 0.10004013,0.10004013 0 0 1 0,-0.002 c -0.99457,-1.13336 -1.5335,-2.71379 -1.625,-4.72656 a 0.10004013,0.10004013 0 0 1 0.0996,-0.10352 h 12.19531 c 0.0161,-0.15319 0.0293,-0.31122 0.0293,-0.48047 a 0.10004013,0.10004013 0 0 1 0,-0.01 c 0.0225,-0.22446 0.0332,-0.41389 0.0332,-0.56836 0,-1.96475 -0.2932,-3.57308 -0.875,-4.82617 a 0.10004013,0.10004013 0 0 1 -0.002,-0.002 c -0.58296,-1.27803 -1.40654,-2.21061 -2.47656,-2.8125 a 0.10004013,0.10004013 0 0 1 -0.002,-0.002 c -1.04938,-0.62516 -2.30073,-0.93945 -3.76172,-0.93945 z m -34.71289,0.0684 c -1.77959,0 -3.32764,0.36069 -4.65039,1.07812 -1.32264,0.71737 -2.35117,1.75598 -3.0918,3.125 -0.71711,1.34459 -1.07813,2.97193 -1.07813,4.88867 0,1.71356 0.29462,3.25417 0.87891,4.625 0.60598,1.36834 1.50021,2.45331 2.6875,3.25977 1.20616,0.78106 2.71606,1.17383 4.53906,1.17383 1.21509,0 2.23549,-0.17956 3.0586,-0.53516 0.85723,-0.3835 1.56548,-0.78962 2.125,-1.21484 a 0.10004013,0.10004013 0 0 1 0.14062,0.0215 c 0.37428,0.50638 0.88066,0.90254 1.52344,1.19141 l 0.004,0.002 c 0.64449,0.25719 1.4107,0.40823 2.29101,0.45898 l 0.31055,-1.92187 c -0.54792,-0.0884 -1.02322,-0.19394 -1.41406,-0.32422 a 0.10004013,0.10004013 0 0 1 -0.006,-0.002 c -0.42728,-0.16618 -0.75547,-0.44549 -0.97071,-0.82813 a 0.10004013,0.10004013 0 0 1 -0.002,-0.004 c -0.19398,-0.388 -0.28125,-0.95782 -0.28125,-1.71485 v -12.25195 c -0.49265,-0.19502 -1.27688,-0.41509 -2.37305,-0.65625 -1.12672,-0.24787 -2.35839,-0.37109 -3.6914,-0.37109 z m 10.93554,0.33984 v 17.4375 h 2.35547 v -8.44727 a 0.10004013,0.10004013 0 0 1 0.15235,-0.0859 c 0.86948,0.52627 1.83643,1.2562 2.90625,2.18945 1.06998,0.9334 2.10613,1.95916 3.10742,3.07422 1.00985,1.09974 1.85176,2.18969 2.53125,3.26953 h 2.75976 c -0.59793,-1.01669 -1.35884,-2.0846 -2.30859,-3.20703 a 0.10004013,0.10004013 0 0 1 -0.002,-0.002 c -0.97312,-1.19943 -2.02652,-2.33075 -3.15821,-3.39453 a 0.10004013,0.10004013 0 0 1 -0.002,0 c -1.10847,-1.08584 -2.18152,-1.96807 -3.21875,-2.64453 a 0.10004013,0.10004013 0 0 1 -0.0137,-0.1582 c 0.54393,-0.4986 1.16799,-1.08717 1.87109,-1.76758 0.70299,-0.70299 1.42939,-1.43992 2.17774,-2.21094 a 0.10004013,0.10004013 0 0 1 0.002,0 c 0.771,-0.77099 1.50795,-1.52043 2.21094,-2.24609 v -0.002 c 0.64312,-0.68462 1.18855,-1.27199 1.67968,-1.80469 h -2.75585 c -0.38435,0.4285 -0.88076,0.96006 -1.50391,1.60547 -0.61245,0.63513 -1.28168,1.33785 -2.00781,2.10937 a 0.10004013,0.10004013 0 0 1 0,0.002 c -0.72672,0.74943 -1.46549,1.49674 -2.21485,2.24609 a 0.10004013,0.10004013 0 0 1 0,0.002 c -0.74909,0.72641 -1.43003,1.38438 -2.04297,1.97461 a 0.10004013,0.10004013 0 0 1 -0.16992,-0.0723 v -7.86719 z m 23.81055,1.60547 c 0.99156,0 1.83061,0.23218 2.50781,0.69922 0.69713,0.4426 1.23247,1.09569 1.60157,1.94922 0.36953,0.83211 0.56305,1.83127 0.58593,2.99804 a 0.10004013,0.10004013 0 0 1 -0.0996,0.10156 h -9.70312 a 0.10004013,0.10004013 0 0 1 -0.0996,-0.10742 c 0.0689,-0.98786 0.31035,-1.90628 0.72461,-2.75781 a 0.10004013,0.10004013 0 0 1 0,-0.002 c 0.43818,-0.85331 1.04243,-1.54881 1.80469,-2.08008 0.7661,-0.53396 1.66159,-0.80078 2.67773,-0.80078 z m -34.60937,0.10156 c 0.82211,0 1.56592,0.0797 2.23242,0.24023 0.68262,0.13653 1.0951,0.23356 1.27929,0.3125 a 0.10004013,0.10004013 0 0 1 0.0606,0.0918 v 10.11133 c 0,0.31246 0.013,0.61403 0.0352,0.9043 0.0454,0.27226 0.0876,0.53246 0.13281,0.78125 a 0.10004013,0.10004013 0 0 1 -0.0332,0.0937 c -0.33236,0.28487 -0.89298,0.60375 -1.69141,0.96875 -0.78723,0.34731 -1.72133,0.51953 -2.79883,0.51953 -1.0557,0 -1.95579,-0.18298 -2.69922,-0.55469 -0.71627,-0.3697 -1.30847,-0.87103 -1.77148,-1.49609 a 0.10004013,0.10004013 0 0 1 -0.002,-0.002 c -0.43835,-0.64597 -0.76195,-1.38564 -0.96875,-2.21289 a 0.10004013,0.10004013 0 0 1 0,-0.002 c -0.18318,-0.84717 -0.27539,-1.73859 -0.27539,-2.67578 -1e-5,-1.50921 0.25239,-2.79655 0.75976,-3.85742 a 0.10004013,0.10004013 0 0 1 0,-0.002 c 0.52998,-1.05993 1.28278,-1.85881 2.25391,-2.39062 0.99262,-0.55403 2.156,-0.83008 3.48633,-0.83008 z" />
    <g
       id="g1"
       transform="matrix(0.43519569,0,0,0.43519569,120.28805,135.29551)">
      <path
         style="fill:none;fill-opacity:1;stroke:url(#linearGradient115);stroke-width:3;stroke-linecap:round;stroke-linejoin:round;stroke-dasharray:none;stroke-opacity:1"
         d="M 64,32 H 86.985699 L 64.067797,54.986 64,32"
         id="path2"
         sodipodi:nodetypes="cccc"
         inkscape:path-effect="#path-effect5"
         inkscape:original-d="M 64,32 H 86.985699 L 64.067797,54.986 64,32" />
      <path
         style="fill:none;fill-opacity:1;stroke:url(#linearGradient2499);stroke-width:3;stroke-linecap:round;stroke-linejoin:round;stroke-dasharray:none;stroke-opacity:1"
         d="M 26.673595,82.287818 16,32 H 64 L 21.353877,56.62175"
         id="path2-5"
         sodipodi:nodetypes="ccc"
         inkscape:original-d="M 26.673595,82.287818 16,32 H 64 L 21.353877,56.62175"
         inkscape:path-effect="#path-effect4-7"
         transform="translate(4.7670244e-4,4.9999371e-4)" />
      <path
         style="fill:none;fill-opacity:1;stroke:url(#linearGradient2348);stroke-width:3;stroke-linecap:butt;stroke-linejoin:round;stroke-dasharray:none;stroke-opacity:1"
         d="M 64,96.99336 H 16 L 64,32 Z"
         id="path1"
         sodipodi:nodetypes="cccc" />
      <path
         style="fill:none;stroke-width:0.750001;stroke-linejoin:bevel"
         d="M 62.71027,32.569772 C 56.932571,54.132439 51.15492,75.694927 45.377318,97.257232"
         id="path483"
         inkscape:original-d="M 62.71027,32.569772 C 56.932884,54.132523 51.155233,75.695011 45.377318,97.257232"
         inkscape:path-effect="#path-effect485" />
    </g>
  </g>
  <metadata
     id="metadata901">
    <rdf:RDF>
      <cc:Work
         rdf:about="">
        <dc:rights>
          <cc:Agent>
            <dc:title>Copyright (C) 2023 Pyxherb&lt;codesbuilder@163.com&gt;, all rights reserved</dc:title>
          </cc:Agent>
        </dc:rights>
        <dc:creator>
          <cc:Agent>
            <dc:title>Pyxherb&lt;codesbuilder@163.com&gt;</dc:title>
          </cc:Agent>
        </dc:creator>
        <dc:date>2023/07/02</dc:date>
        <dc:title>Slake text logo</dc:title>
        <dc:description>Text logo of slake project</dc:description>
      </cc:Work>
    </rdf:RDF>
  </metadata>
</svg>
